/* XPM */
static char *IDI_ICON1_xpm[] = {
/* columns rows colors chars-per-pixel */
"32 32 121 2 ",
"   c #3F3500",
".  c #3C3D00",
"X  c #383838",
"o  c #4F0000",
"O  c #4F0E00",
"+  c #540100",
"@  c #500C00",
"#  c #560C0C",
"$  c #4D1400",
"%  c #491D00",
"&  c #571616",
"*  c #581B1B",
"=  c #61170F",
"-  c #472300",
";  c #432E00",
":  c #403300",
">  c #53251A",
",  c #592424",
"<  c #5A2B2B",
"1  c #5B3434",
"2  c #5A3738",
"3  c #5C3D3D",
"4  c #394500",
"5  c #354E00",
"6  c #355001",
"7  c #385409",
"8  c #3C5815",
"9  c #405F22",
"0  c #505238",
"q  c #78422C",
"w  c #416124",
"e  c #466835",
"r  c #476B39",
"t  c #5B3F40",
"y  c #4A4A4A",
"u  c #5C4243",
"i  c #5D4B4B",
"p  c #545454",
"a  c #5E5555",
"s  c #5F5E5E",
"d  c #756858",
"f  c #5E6461",
"g  c #5E6863",
"h  c #5A7464",
"j  c #557F64",
"k  c #666666",
"l  c #6B6262",
"z  c #606B6B",
"x  c #686D68",
"c  c #746F60",
"v  c #6A756E",
"b  c #627171",
"n  c #637B7B",
"m  c #7D7D7D",
"M  c #854949",
"N  c #875656",
"B  c #8A6342",
"V  c #976464",
"C  c #558065",
"Z  c #598671",
"A  c #5A8974",
"S  c #5C8B7B",
"D  c #8D9D7F",
"F  c #A18F60",
"G  c #B7B87B",
"H  c #5E8D80",
"J  c #638484",
"K  c #648B8B",
"L  c #748A8A",
"P  c #62948E",
"I  c #649696",
"U  c #639798",
"Y  c #659999",
"T  c #6B9D9C",
"R  c #75A59A",
"E  c #7BAA9B",
"W  c #67A1A1",
"Q  c #70A0A0",
"!  c #999999",
"~  c #87B39B",
"^  c #82ACAC",
"/  c #90A9A9",
"(  c #91B6B6",
")  c #94B9B9",
"_  c #A4A4A4",
"`  c #A9A9A9",
"'  c #B4B4B4",
"]  c #BABABA",
"[  c #9DC49C",
"{  c #BCC585",
"}  c #A5CA9D",
"|  c #ABCF9D",
" . c #AED09D",
".. c #BCDC9E",
"X. c #B2DBA5",
"o. c #C9E59E",
"O. c #CDE89F",
"+. c #D0E69A",
"@. c #D5EF9F",
"#. c #D6F09F",
"$. c #CDEAA0",
"%. c #D5EFA0",
"&. c #D5F2A2",
"*. c #A2C1C1",
"=. c #ABC7C7",
"-. c #B4CDCD",
";. c #B9D0D0",
":. c #C9C9C9",
">. c #C3D7D7",
",. c #C9DBDB",
"<. c #D1D1D1",
"1. c #DEDEDE",
"2. c #D3E1E1",
"3. c #DAE6E6",
"4. c #E0E0E0",
"5. c #E1EBEB",
"6. c #EBEBEB",
"7. c #F2F5F5",
"8. c #F8F4F4",
"9. c #FFFFFF",
"0. c None",
/* pixels */
"0.0.x 6.9.9.9.9.9.9.9.V o M 9.9.9.9.9.9.7.' y 0.0.0.0.0.0.0.0.0.",
"0.0.` 9.9.9.9.9.9.9.9.V o M 8.7.9.9.9.9.9.9.1.s 0.0.0.0.0.0.0.0.",
"0.0.] 9.>.( ( ( ( ( ( L g l M N / ) 3.9.3.5.9.4.s 0.0.0.0.0.0.0.",
"0.0.] 9.-.I I I U U U T W b + # J Y 2.9.-.^ 5.9.4.s 0.0.0.0.0.0.",
"0.0.] 9.-.U Y Y Y Y Y b a a i a I Y 2.9.-.I ^ 5.9.1.k 0.0.0.0.0.",
"0.0.] 9.-.U Y Y Y Y T 3 + 1 Y W Y T 2.9.-.Y Y ^ 5.9.1.s 0.0.0.0.",
"0.0.] 9.-.U Y Y Y Y Y a , u b n I T 2.9.-.U Y U ^ 5.9.4.s 0.0.0.",
"0.0.] 9.-.U Y Y Y Y Y I U z # & J T 2.9.-.I Y Y I ^ 5.9.<.X 0.0.",
"0.0.] 9.-.I Y Y Y Y Y P I k # , K T 2.9.;.Q Q Q Q T ( 7.9.m 0.0.",
"0.0.] 9.-.Y Y Y Y Y Y a * 3 n J I Y 2.9.7.5.5.5.5.5.3.9.9._ 0.0.",
"0.0.] 9.-.Y Y Y U U Y 3 + 1 Y Y Y Y =.9.9.9.9.9.9.9.9.9.9.` 0.0.",
"0.0.] 9.-.Y Y Y E } } D x s 3 i K Y T ( *.*.*.} *.*.*.3.9.` 0.0.",
"0.0.] 9.-.Y Y ~ o.@.@.%.X.v + # J Y Y I Y I Y I U I I >.9.` 0.0.",
"0.0.] 9.-.I T ..@.@.@.G F d u i I Y Y Y Y Y Y Y Y Y Y >.9.` 0.0.",
"0.0.] 9.-.U E O.@.@.@.B + 1 Y Y Y Y Y Y Y Y Y Y Y Y Y >.9.` 0.0.",
"0.0.] 9.-.U R o.@.@.%.B + < n K Y I T I Y Y Y Y Y Y Y >.9.` 0.0.",
"0.0.] 9.-.I Y | #.%.+.q + + # * n T Z e S Y Y Y Y Y Y >.9.` 0.0.",
"0.0.] 9.-.Y Y R  .%.{ = + + + + a S 8 5 w S T Y Y Y Y >.9.` 0.0.",
"0.0.] 9.-.Y Y Y T E c + + + + + > 8 6 6 5 w H Y Y Y Y >.9.` 0.0.",
"0.0.] 9.-.I Y Y Y U 2 + + + + + @ 4 6 5 6 5 w S T Y Y >.9.` 0.0.",
"0.0.] 9.-.U Y Y Y J & + + + + + + : 6 6 5 6 5 w H Y Y >.9.` 0.0.",
"0.0.] 9.-.I Y Y P 0 + + + + + + + % 5 6 6 5 6 5 w P Y >.9.` 0.0.",
"0.0.] 9.-.Y T P r - + + $ $ $ + + @ 4 5 5 6 5 5 7 S Y >.9.` 0.0.",
"0.0.] 9.-.Y I r 4 $ + % 4 6 5   + + 4 6 6 5 6 5 7 S Y >.9.` 0.0.",
"0.0.] 9.-.Y S 7 5 $ + % . 4 4 ; + + . 6 6 5 6 5 7 S Y >.9.` 0.0.",
"0.0.] 9.-.Y S 7 5 ; + + + $ @ + + % 5 6 5 6 5 5 7 S Y >.9.` 0.0.",
"0.0.] 9.-.Y S 7 6 5 ; O + + + + % 4 6 6 6 6 5 6 7 S Y >.9.` 0.0.",
"0.0.] 9.-.U P C j C C h g f f h j C j j j C C j C I Y >.9.` 0.0.",
"0.0.] 9.-.I I U Y Y U Y Y Y U Y U U Y Y Y Y U Y Y U I >.9.` 0.0.",
"0.0.] 9.2.*.*.*.*.*.*.*.*.*.*.*.*.*.*.*.*.*.*.*.*.*.*.3.9.` 0.0.",
"0.0.` 9.9.9.9.9.9.9.9.9.9.9.9.9.9.9.9.9.9.9.9.9.9.9.9.9.9.! 0.0.",
"0.0.p <.6.6.6.6.6.6.6.6.6.6.6.6.6.6.6.6.6.6.6.6.6.6.6.6.:.y 0.0."
};
