/* XPM */
static auto IDI_ICON_NEXT_xpm = {
/* columns rows colors chars-per-pixel */
"32 32 2 1 ",
"  c #444444",
". c None",
/* pixels */
"............        ............",
".........              .........",
".......                  .......",
"......      ........      ......",
".....     ............     .....",
"....    ................    ....",
"...    ..................    ...",
"..    ....................    ..",
"..   ......................   ..",
".    ......................    .",
".   ..............    ......   .",
".   ......  ......    ......   .",
"   .......   .....    .......   ",
"   .......     ...    .......   ",
"   .......      ..    .......   ",
"   .......       .    .......   ",
"   .......       .    .......   ",
"   .......      ..    .......   ",
"   .......     ...    .......   ",
"   .......   .....    .......   ",
".   ......  ......    ......   .",
".   ..............    ......   .",
".    ......................    .",
"..   ......................   ..",
"..    ....................    ..",
"...    ..................    ...",
"....    ................    ....",
".....     ............     .....",
"......      ........      ......",
".......                  .......",
".........              .........",
"............        ............"
};
