/* XPM */
static char* IDI_ICON_AUTO_xpm[] = {
/* columns rows colors chars-per-pixel */
"32 32 2 1 ",
"  c #444444",
". c None",
/* pixels */
"............        ............",
".........              .........",
".......                  .......",
"......      ........      ......",
".....     ............     .....",
"....    ................    ....",
"...    ..................    ...",
"..    ....................    ..",
"..   ......................   ..",
".    ....... ..............    .",
".   ........   .............   .",
".   ........    ............   .",
"   .........      ...........   ",
"   .........        .........   ",
"   .........         ........   ",
"   .........           ......   ",
"   .........           ......   ",
"   .........         ........   ",
"   .........        .........   ",
"   .........      ...........   ",
".   ........    ............   .",
".   ........   .............   .",
".    ....... ..............    .",
"..   ......................   ..",
"..    ....................    ..",
"...    ..................    ...",
"....    ................    ....",
".....     ............     .....",
"......      ........      ......",
".......                  .......",
".........              .........",
"............        ............"
};
