/* XPM */
static auto IDI_ICON_RANDOM_xpm = {
"32 32 186 2",
"  	c None",
". 	c #444444",
"+ 	c #444444",
"@ 	c #444444",
"# 	c #444444",
"$ 	c #444444",
"% 	c #444444",
"& 	c #444444",
"* 	c #444444",
"= 	c #444444",
"- 	c #444444",
"; 	c #444444",
"> 	c #444444",
", 	c #444444",
"' 	c #444444",
") 	c #444444",
"! 	c #444444",
"~ 	c #444444",
"{ 	c #444444",
"] 	c #444444",
"^ 	c #444444",
"/ 	c #444444",
"( 	c #444444",
"_ 	c #444444",
": 	c #444444",
"< 	c #444444",
"[ 	c #444444",
"} 	c #444444",
"| 	c #444444",
"1 	c #444444",
"2 	c #444444",
"3 	c #444444",
"4 	c #444444",
"5 	c #444444",
"6 	c #444444",
"7 	c #444444",
"8 	c #444444",
"9 	c #444444",
"0 	c #444444",
"a 	c #444444",
"b 	c #444444",
"c 	c #444444",
"d 	c #444444",
"e 	c #444444",
"f 	c #444444",
"g 	c #444444",
"h 	c #444444",
"i 	c #444444",
"j 	c #444444",
"k 	c #444444",
"l 	c #444444",
"m 	c #444444",
"n 	c #444444",
"o 	c #444444",
"p 	c #444444",
"q 	c #444444",
"r 	c #444444",
"s 	c #444444",
"t 	c #444444",
"u 	c #444444",
"v 	c #444444",
"w 	c #444444",
"x 	c #444444",
"y 	c #444444",
"z 	c #444444",
"A 	c #444444",
"B 	c #444444",
"C 	c #444444",
"D 	c #444444",
"E 	c #444444",
"F 	c #444444",
"G 	c #444444",
"H 	c #444444",
"I 	c #444444",
"J 	c #444444",
"K 	c #444444",
"L 	c #444444",
"M 	c #444444",
"N 	c #444444",
"O 	c #444444",
"P 	c #444444",
"Q 	c #444444",
"R 	c #444444",
"S 	c #444444",
"T 	c #444444",
"U 	c #444444",
"V 	c #444444",
"W 	c #444444",
"X 	c #444444",
"Y 	c #444444",
"Z 	c #444444",
"` 	c #444444",
" .	c #444444",
"..	c #444444",
"+.	c #444444",
"@.	c #444444",
"#.	c #444444",
"$.	c #444444",
"%.	c #444444",
"&.	c #444444",
"*.	c #444444",
"=.	c #444444",
"-.	c #444444",
";.	c #444444",
">.	c #444444",
",.	c #444444",
"'.	c #444444",
").	c #444444",
"!.	c #444444",
"~.	c #444444",
"{.	c #444444",
"].	c #444444",
"^.	c #444444",
"/.	c #444444",
"(.	c #444444",
"_.	c #444444",
":.	c #444444",
"<.	c #444444",
"[.	c #444444",
"}.	c #444444",
"|.	c #444444",
"1.	c #444444",
"2.	c #444444",
"3.	c #444444",
"4.	c #444444",
"5.	c #444444",
"6.	c #444444",
"7.	c #444444",
"8.	c #444444",
"9.	c #444444",
"0.	c #444444",
"a.	c #444444",
"b.	c #444444",
"c.	c #444444",
"d.	c #444444",
"e.	c #444444",
"f.	c #444444",
"g.	c #444444",
"h.	c #444444",
"i.	c #444444",
"j.	c #444444",
"k.	c #444444",
"l.	c #444444",
"m.	c #444444",
"n.	c #444444",
"o.	c #444444",
"p.	c #444444",
"q.	c #444444",
"r.	c #444444",
"s.	c #444444",
"t.	c #444444",
"u.	c #444444",
"v.	c #444444",
"w.	c #444444",
"x.	c #444444",
"y.	c #444444",
"z.	c #444444",
"A.	c #444444",
"B.	c #444444",
"C.	c #444444",
"D.	c #444444",
"E.	c #444444",
"F.	c #444444",
"G.	c #444444",
"H.	c #444444",
"I.	c #444444",
"J.	c #444444",
"K.	c #444444",
"L.	c #444444",
"M.	c #444444",
"N.	c #444444",
"O.	c #444444",
"P.	c #444444",
"Q.	c #444444",
"R.	c #444444",
"S.	c #444444",
"T.	c #444444",
"U.	c #444444",
"V.	c #444444",
"W.	c #444444",
"X.	c #444444",
"Y.	c #444444",
"Z.	c #444444",
"`.	c #444444",
" +	c #444444",
".+	c #444444",
"                                                                ",
"                                                                ",
"                                                  .+.+          ",
"                                                  .+.+.+        ",
"                                                  .+.+.+.+      ",
"                                                  .+.+.+.+.+    ",
".+.+.+.+.+.+.+.+                  .+.+.+.+.+.+.+.+.+.+.+.+.+.+  ",
".+.+.+.+.+.+.+.+.+.+          .+.+.+.+.+.+.+.+.+.+.+.+.+.+.+.+.+",
".+.+.+.+.+.+.+.+.+.+.+      .+.+.+.+.+.+.+.+.+.+.+.+.+.+.+.+.+.+",
".+.+.+.+.+.+.+.+.+.+.+.+  /..+.+.+.+.+.+.+.+.+.+.+.+.+.+.+.+.+  ",
"            .+.+.+.+.+    .+.+.+.+.+.+            .+.+.+.+.+    ",
"                .+.+.+  .+.+.+.+.+.+              .+.+.+.+      ",
"                .+.+    .+.+.+.+.+                .+.+.+        ",
"                  .+  .+.+.+.+.+                  .+.+          ",
"                      .+.+.+.+.+                                ",
"                    .+.+.+.+.+                                  ",
"                    .+.+.+.+.+                                  ",
"                  z..+.+.+.+                                    ",
"                  .+.+.+.+.+  .+                  .+.+          ",
"                .+.+.+.+.+l.  .+.+                .+.+.+        ",
"                .+.+.+.+.+  .+.+.+.+              .+.+.+.+      ",
"            .+.+.+.+.+.+    .+.+.+.+.+            .+.+.+.+.+    ",
".+.+.+.+.+.+.+.+.+.+.+.+    .+.+.+.+.+.+.+.+.+.+.+.+.+.+.+.+.+  ",
".+.+.+.+.+.+.+.+.+.+.+      .+.+.+.+.+.+.+.+.+.+.+.+.+.+.+.+.+.+",
".+.+.+.+.+.+.+.+.+.+          U..+.+.+.+.+.+.+.+.+.+.+.+.+.+.+.+",
".+.+.+.+.+.+.+.+                  .+.+.+.+.+.+.+.+.+.+.+.+.+.+  ",
"                                                  .+.+.+.+.+    ",
"                                                  .+.+.+.+      ",
"                                                  .+.+.+        ",
"                                                  .+.+          ",
"                                                                ",
"                                                                "};
